<?xml version="1.0" standalone="no"?>
<!DOCTYPE svg PUBLIC "-//W3C//DTD SVG 20010904//EN"
 "http://www.w3.org/TR/2001/REC-SVG-20010904/DTD/svg10.dtd">
<svg version="1.0" xmlns="http://www.w3.org/2000/svg"
 width="512.000000pt" height="512.000000pt" viewBox="0 0 512.000000 512.000000"
 preserveAspectRatio="xMidYMid meet">

<g transform="translate(0.000000,512.000000) scale(0.100000,-0.100000)"
fill="#000000" stroke="none">
<path d="M2468 4853 c39 -2 105 -2 145 0 39 1 7 3 -73 3 -80 0 -112 -2 -72 -3z"/>
<path d="M2308 4843 c12 -2 30 -2 40 0 9 3 -1 5 -23 4 -22 0 -30 -2 -17 -4z"/>
<path d="M2738 4843 c12 -2 30 -2 40 0 9 3 -1 5 -23 4 -22 0 -30 -2 -17 -4z"/>
<path d="M2233 4833 c9 -2 23 -2 30 0 6 3 -1 5 -18 5 -16 0 -22 -2 -12 -5z"/>
<path d="M2823 4833 c9 -2 25 -2 35 0 9 3 1 5 -18 5 -19 0 -27 -2 -17 -5z"/>
<path d="M2085 4815 l-50 -14 45 6 c25 3 52 9 60 14 20 11 5 10 -55 -6z"/>
<path d="M2980 4810 c14 -4 34 -8 45 -8 16 0 15 2 -5 8 -14 4 -34 8 -45 8 -16
0 -15 -2 5 -8z"/>
<path d="M3050 4799 c0 -5 9 -9 20 -9 11 0 20 2 20 4 0 2 -9 6 -20 9 -11 3
-20 1 -20 -4z"/>
<path d="M1955 4785 c-54 -17 -33 -18 30 -1 28 8 41 14 30 14 -11 0 -38 -5
-60 -13z"/>
<path d="M3108 4783 c7 -3 16 -2 19 1 4 3 -2 6 -13 5 -11 0 -14 -3 -6 -6z"/>
<path d="M1855 4758 c-72 -24 -235 -91 -231 -95 2 -2 32 8 67 23 35 15 100 39
144 55 44 15 73 27 65 27 -8 0 -28 -4 -45 -10z"/>
<path d="M3235 4745 c39 -14 74 -23 79 -22 10 3 -124 47 -139 46 -6 0 22 -11
60 -24z"/>
<path d="M3395 4688 c110 -47 316 -158 401 -215 320 -217 556 -473 755 -821
28 -51 54 -92 56 -92 9 0 -91 178 -154 272 -169 257 -390 476 -658 655 -115
76 -357 200 -425 217 -14 3 -2 -4 25 -16z"/>
<path d="M1482 4600 c-121 -63 -300 -177 -323 -207 -13 -17 -13 -17 8 -3 167
115 221 149 321 201 123 65 131 69 116 69 -5 0 -60 -27 -122 -60z"/>
<path d="M1055 4311 c-96 -81 -253 -244 -318 -328 -81 -106 -207 -303 -193
-303 2 0 22 31 44 68 122 205 369 484 537 606 11 8 18 17 15 20 -3 3 -42 -25
-85 -63z"/>
<path d="M910 3893 c-39 -20 -56 -57 -46 -96 14 -56 91 -73 116 -27 10 18 8
19 -19 14 -26 -5 -32 -2 -42 19 -17 39 10 77 54 77 50 0 72 -21 72 -68 0 -48
-17 -69 -94 -120 -57 -38 -91 -83 -91 -119 0 -23 2 -23 120 -23 l120 0 0 37
c0 29 -3 34 -12 25 -14 -14 -178 -17 -178 -4 0 14 54 59 96 80 92 46 120 123
67 182 -36 40 -110 50 -163 23z"/>
<path d="M1216 3856 c-6 -36 -24 -80 -84 -198 -2 -4 30 -8 70 -10 68 -3 73 -5
76 -26 2 -15 -5 -33 -19 -48 l-22 -24 61 0 c63 0 74 7 46 30 -17 15 -15 61 2
67 6 2 14 -5 17 -17 6 -24 25 -27 33 -5 9 21 -14 45 -42 45 -23 0 -24 3 -24
75 l0 75 -25 -16 c-22 -14 -25 -23 -25 -75 l0 -59 -56 0 -56 0 31 39 c37 47
81 138 81 169 0 18 -6 22 -29 22 -26 0 -29 -4 -35 -44z"/>
<path d="M505 3620 c-14 -27 -23 -50 -20 -50 2 0 16 23 30 50 14 28 23 50 20
50 -2 0 -16 -22 -30 -50z"/>
<path d="M462 3537 c-24 -47 -62 -140 -62 -151 0 -6 18 29 40 78 22 49 38 91
37 93 -2 2 -9 -7 -15 -20z"/>
<path d="M4627 3495 c15 -30 28 -53 30 -51 5 5 -41 106 -49 106 -4 0 4 -25 19
-55z"/>
<path d="M847 3493 c6 -44 29 -66 61 -60 22 4 24 2 20 -29 -3 -29 -1 -34 17
-34 18 0 20 6 20 80 0 75 -1 80 -22 80 -19 0 -21 -4 -16 -40 5 -38 4 -40 -20
-40 -28 0 -43 27 -32 60 5 15 2 20 -14 20 -17 0 -19 -5 -14 -37z"/>
<path d="M1040 3506 c0 -14 -7 -32 -16 -40 -8 -9 -12 -21 -8 -27 3 -6 -3 -24
-15 -40 l-22 -29 24 0 c20 0 23 4 19 25 -4 25 11 35 23 15 4 -6 16 -8 27 -4
18 5 20 3 15 -15 -4 -17 -1 -21 19 -21 22 0 23 2 13 21 -6 12 -9 29 -6 39 2
10 -4 25 -14 34 -11 9 -19 27 -19 41 0 18 -5 25 -20 25 -15 0 -20 -7 -20 -24z
m30 -63 c0 -13 -4 -23 -9 -23 -17 0 -23 20 -16 48 5 20 8 23 16 11 5 -7 9 -24
9 -36z"/>
<path d="M1182 3523 c-22 -9 -44 -63 -37 -94 7 -30 47 -69 71 -69 16 0 54 35
54 50 0 18 -18 10 -23 -10 -7 -28 -43 -25 -63 6 -26 39 -9 98 29 102 20 3 27
-1 27 -15 1 -17 2 -17 16 2 13 18 13 20 -3 27 -21 8 -53 9 -71 1z"/>
<path d="M1340 3505 c0 -14 -8 -32 -19 -41 -11 -10 -16 -24 -14 -35 3 -11 -2
-28 -12 -39 -18 -19 -17 -20 7 -20 22 0 25 4 20 25 -4 25 11 35 23 15 4 -6 14
-9 23 -8 11 2 16 -3 16 -14 -1 -13 6 -18 22 -18 22 0 23 2 13 21 -6 12 -9 29
-6 39 2 10 -4 25 -14 34 -11 9 -19 27 -19 41 0 18 -5 25 -20 25 -15 0 -20 -7
-20 -25z m25 -74 c-10 -27 -28 5 -20 36 l7 28 9 -24 c6 -14 7 -31 4 -40z"/>
<path d="M640 3463 c0 -5 23 -23 51 -42 27 -19 48 -36 45 -38 -2 -3 -25 3 -50
11 -85 29 -128 18 -152 -40 -18 -43 -11 -56 22 -44 60 23 147 -5 221 -70 136
-121 238 -159 346 -129 20 5 37 12 37 16 0 9 -120 122 -219 204 -113 94 -196
139 -258 139 -23 0 -43 -3 -43 -7z"/>
<path d="M1600 3456 c-72 -25 -153 -89 -308 -239 -67 -66 -89 -93 -80 -99 7
-5 51 -8 98 -6 l85 3 3 -28 c2 -16 -3 -36 -13 -46 -12 -14 -13 -24 -5 -45 5
-15 10 -37 9 -49 0 -17 -4 -14 -14 13 l-13 35 -26 -58 c-31 -69 -32 -82 -8
-129 19 -36 19 -36 0 -25 -16 10 -25 6 -63 -37 -56 -61 -58 -52 -5 18 47 63
50 74 11 45 -16 -12 -34 -18 -40 -15 -6 4 -11 2 -11 -5 0 -7 -2 -10 -5 -7 -10
10 8 39 20 34 20 -7 50 33 80 109 35 89 46 126 39 136 -13 21 -39 -14 -106
-141 -75 -146 -98 -169 -126 -129 -14 20 -16 18 -39 -38 -16 -40 -23 -70 -19
-96 5 -45 46 -132 77 -166 21 -23 23 -23 36 -5 7 10 14 27 14 38 1 14 4 11 8
-9 7 -29 7 -29 19 18 7 26 21 52 32 59 11 7 20 21 20 31 0 10 8 32 18 50 17
31 17 29 20 -167 1 -130 6 -204 14 -213 8 -10 31 -13 82 -11 l71 3 3 63 c3 57
1 63 -20 71 -22 8 -22 8 -2 19 19 10 21 19 19 99 -3 112 1 132 24 126 37 -10
90 130 77 201 -4 19 -41 87 -83 151 -63 97 -73 119 -60 126 19 11 119 92 155
126 48 45 127 76 183 71 53 -5 56 -1 34 41 -24 47 -64 53 -145 22 -27 -11 -50
-17 -50 -15 0 9 55 53 73 59 9 4 17 11 17 16 0 13 -59 10 -100 -5z m-155 -636
c3 -5 1 -10 -4 -10 -6 0 -11 5 -11 10 0 6 2 10 4 10 3 0 8 -4 11 -10z m12
-157 c-3 -10 -5 -4 -5 12 0 17 2 24 5 18 2 -7 2 -21 0 -30z m-231 -8 c18 -13
17 -14 -11 -12 -30 2 -32 -2 -20 -38 7 -18 6 -18 -9 2 -10 14 -23 19 -36 16
-24 -6 -26 9 -4 31 19 20 54 20 80 1z m201 -132 c-2 -16 -4 -3 -4 27 0 30 2
43 4 28 2 -16 2 -40 0 -55z m-55 -43 c4 0 8 8 8 18 0 20 17 49 24 41 6 -5 -40
-178 -50 -188 -3 -3 -3 15 1 41 5 34 3 59 -9 88 -9 22 -16 53 -15 68 1 22 4
18 17 -20 8 -27 19 -48 24 -48z m98 60 c0 -5 -4 -10 -10 -10 -5 0 -10 5 -10
10 0 6 5 10 10 10 6 0 10 -4 10 -10z m-23 -170 c9 -25 9 -30 -3 -30 -8 0 -14
3 -14 8 0 4 -3 17 -6 30 -9 33 10 27 23 -8z"/>
<path d="M4676 3387 c3 -10 9 -15 12 -12 3 3 0 11 -7 18 -10 9 -11 8 -5 -6z"/>
<path d="M376 3329 c-9 -23 -15 -44 -12 -47 3 -3 8 4 12 14 3 10 10 30 15 43
5 13 8 25 6 28 -3 2 -12 -15 -21 -38z"/>
<path d="M4710 3294 c0 -6 7 -19 16 -30 14 -18 14 -18 3 6 -14 31 -19 36 -19
24z"/>
<path d="M350 3259 c0 -5 5 -7 10 -4 6 3 10 8 10 11 0 2 -4 4 -10 4 -5 0 -10
-5 -10 -11z"/>
<path d="M340 3225 c0 -8 2 -15 4 -15 2 0 6 7 10 15 3 8 1 15 -4 15 -6 0 -10
-7 -10 -15z"/>
<path d="M4733 3227 c4 -10 7 -27 7 -38 0 -10 4 -19 9 -19 10 0 -3 58 -15 69
-4 3 -4 -2 -1 -12z"/>
<path d="M2892 3164 c-6 -12 -9 -32 -6 -45 18 -76 18 -73 -2 -64 -10 4 -26 7
-34 6 -8 -1 -45 -1 -82 -1 l-68 1 0 -129 c0 -123 1 -130 23 -145 21 -15 21
-15 1 -10 -20 4 -22 -1 -29 -63 -10 -92 4 -421 19 -432 6 -4 39 -6 73 -4 l61
4 4 41 c5 54 -6 110 -17 85 -4 -10 -11 -15 -17 -12 -5 3 -1 15 9 26 15 17 18
38 18 143 l0 122 36 44 c19 24 38 52 42 62 14 37 29 5 25 -49 -3 -30 -2 -54 2
-54 4 0 12 -11 18 -25 18 -40 55 -34 74 13 44 106 46 138 18 200 l-19 42 30 0
c22 0 32 6 41 26 11 23 9 28 -11 43 -14 11 -19 21 -13 25 7 4 7 13 -1 29 -10
22 -15 23 -48 16 -26 -6 -48 -4 -72 6 -34 14 -48 38 -59 100 -4 20 -4 20 -16
-1z m8 -134 c12 -8 9 -10 -13 -10 -16 0 -26 4 -22 10 8 12 16 12 35 0z m-131
-47 c5 -21 11 -47 13 -57 5 -30 27 -30 38 -1 7 18 7 39 1 61 -13 48 6 43 20
-6 11 -38 14 -40 46 -36 22 3 31 1 27 -6 -4 -6 -8 -25 -9 -43 -1 -28 -38 -95
-51 -95 -2 0 -9 12 -14 26 -8 19 -15 24 -30 19 -14 -4 -20 -2 -20 8 0 19 -30
77 -39 77 -10 0 -22 70 -15 82 11 18 24 6 33 -29z m281 28 c0 -10 -39 -59 -40
-49 0 17 20 58 30 58 5 0 10 -4 10 -9z m-239 -252 c-12 -19 -21 -47 -21 -62 0
-16 -4 -26 -9 -23 -5 3 -15 -9 -21 -27 -42 -111 -39 -111 -38 -7 1 73 3 84 8
50 l6 -45 17 37 c9 21 17 40 17 43 0 3 12 24 27 46 32 48 44 37 14 -12z m-14
-176 c-3 -10 -5 -4 -5 12 0 17 2 24 5 18 2 -7 2 -21 0 -30z m-57 -150 c0 -69
-3 -94 -11 -86 -9 9 -3 183 7 183 2 0 4 -44 4 -97z m29 -20 c-1 -48 -3 -53 -9
-28 -11 45 -11 85 0 85 6 0 9 -25 9 -57z m68 -65 c-3 -8 -6 -5 -6 6 -1 11 2
17 5 13 3 -3 4 -12 1 -19z"/>
<path d="M2835 2889 c-9 -14 -2 -20 14 -10 8 6 9 11 3 15 -6 3 -14 1 -17 -5z"/>
<path d="M317 3151 c-4 -17 -3 -21 5 -13 5 5 8 16 6 23 -3 8 -7 3 -11 -10z"/>
<path d="M4750 3155 c0 -5 5 -17 10 -25 5 -8 10 -10 10 -5 0 6 -5 17 -10 25
-5 8 -10 11 -10 5z"/>
<path d="M305 3111 c-3 -5 -1 -12 5 -16 5 -3 10 1 10 9 0 18 -6 21 -15 7z"/>
<path d="M4771 3094 c0 -11 3 -14 6 -6 3 7 2 16 -1 19 -3 4 -6 -2 -5 -13z"/>
<path d="M882 3058 c-17 -17 -17 -564 0 -574 8 -5 10 15 5 81 -7 92 5 167 29
196 8 8 14 23 14 32 0 20 4 21 31 7 22 -12 26 -35 4 -26 -18 7 -19 -9 -4 -88
11 -62 3 -112 -11 -66 -5 14 -8 44 -9 67 -1 23 -5 44 -9 47 -16 9 -34 -92 -27
-146 7 -47 9 -50 21 -33 24 33 26 9 2 -39 l-22 -47 57 -57 57 -57 -5 65 c-3
47 -1 61 6 50 8 -11 9 -3 4 30 -4 25 -6 54 -6 65 1 11 3 48 4 81 3 44 10 69
25 88 43 56 37 116 -13 116 -12 0 -30 9 -39 19 -16 17 -16 22 -2 49 18 34 32
132 20 132 -5 -1 -25 -14 -44 -30 -50 -43 -74 -38 -25 6 24 22 32 33 20 29
-34 -11 -40 -11 -37 3 3 15 -30 16 -46 0z m98 -117 c0 -12 -58 -61 -73 -61 -6
0 4 16 23 35 34 35 50 43 50 26z"/>
<path d="M1710 3038 c-11 -18 -27 -67 -36 -108 -9 -41 -20 -90 -24 -108 -5
-19 -5 -30 1 -27 5 4 9 12 9 18 1 17 40 65 40 49 0 -7 -20 -52 -44 -100 -35
-69 -52 -122 -82 -255 -29 -132 -35 -170 -25 -176 10 -6 9 -10 -3 -14 -9 -4
-16 -13 -16 -22 0 -12 14 -15 73 -15 l72 0 0 40 c0 43 -15 61 -45 53 -15 -4
-18 1 -16 29 5 51 6 54 15 40 5 -9 19 5 46 48 21 33 40 59 42 56 2 -2 0 -27
-5 -55 -9 -47 -8 -51 10 -51 11 0 22 9 25 20 3 11 10 20 16 20 6 0 21 10 34
22 23 21 34 13 11 -10 -9 -9 -6 -14 13 -21 l24 -10 -28 0 c-35 -1 -63 -15 -71
-36 -4 -13 6 -15 64 -15 61 0 69 2 63 17 -5 12 -2 15 10 10 11 -4 24 2 37 15
16 17 23 19 32 10 9 -9 8 -12 -5 -12 -32 0 -17 -29 20 -39 20 -6 38 -9 39 -8
2 2 -12 34 -31 72 -19 39 -35 79 -35 90 -1 37 -65 192 -78 187 -16 -5 -15 17
3 51 13 26 12 34 -12 98 -15 38 -33 69 -40 69 -30 0 -10 19 27 25 39 7 78 41
62 56 -8 8 -47 12 -104 10 -30 -1 -41 -7 -53 -28 l-16 -28 5 33 c7 41 1 41
-24 0z m34 -145 c3 -24 3 -43 -1 -43 -18 0 -38 57 -34 100 l3 45 13 -30 c7
-16 15 -49 19 -72z m96 -72 c-16 -32 -30 -25 -20 9 5 16 12 35 17 42 13 21 16
-27 3 -51z m-141 -62 c-7 -19 -16 -38 -20 -44 -5 -5 -2 12 7 38 9 27 18 46 20
44 2 -2 -1 -19 -7 -38z m130 -57 c12 -43 21 -92 21 -109 0 -27 -4 -31 -37 -36
-46 -8 -61 4 -55 43 5 34 -4 39 -24 13 -21 -28 -17 0 13 88 36 107 53 107 82
1z"/>
<path d="M2152 3061 c-10 -6 -16 -258 -13 -590 1 -132 4 -182 12 -174 6 6 13
81 16 182 6 159 11 189 29 160 4 -8 9 -7 15 2 6 11 11 11 21 1 21 -21 56 -14
71 15 14 26 15 27 22 4 5 -16 12 -20 27 -15 14 4 18 2 14 -5 -4 -7 1 -11 13
-11 20 0 30 22 47 106 6 33 15 31 -109 25 -20 -1 -30 -8 -38 -28 -6 -16 -13
-23 -16 -16 -2 6 5 29 16 51 21 41 19 52 -9 52 -14 0 -20 -16 -29 -75 -7 -41
-15 -75 -18 -75 -3 0 -3 34 0 76 5 73 20 110 38 98 16 -10 31 7 19 21 -8 10
-8 25 0 54 11 44 7 61 -14 61 -7 0 -25 17 -39 39 -25 38 -55 55 -75 42z m53
-41 c-3 -5 -13 -10 -21 -10 -8 0 -12 5 -9 10 3 6 13 10 21 10 8 0 12 -4 9 -10z
m31 -174 c-14 -24 -26 -55 -26 -68 0 -18 -2 -20 -10 -8 -5 8 -10 30 -10 49 0
29 -2 32 -15 21 -19 -15 -20 1 -4 32 11 20 13 20 24 5 11 -16 14 -15 30 9 12
18 20 23 27 16 7 -7 3 -24 -16 -56z"/>
<path d="M2472 3061 c-9 -5 -12 -41 -11 -128 0 -73 -4 -130 -11 -142 -6 -12
-9 -25 -6 -30 3 -4 -1 -32 -9 -62 -18 -67 -18 -69 0 -69 11 0 15 -11 15 -40 0
-39 1 -40 34 -40 29 0 36 4 45 32 18 50 22 27 6 -32 -8 -30 -15 -73 -15 -95 1
-39 1 -40 14 -15 14 24 14 23 12 -18 -1 -23 -8 -48 -14 -54 -7 -7 -12 -23 -13
-37 l0 -26 -10 25 c-6 14 -9 63 -8 110 3 84 3 85 -21 82 -13 -1 -26 -4 -28 -6
-2 -3 0 -55 5 -118 l8 -113 69 -3 c70 -3 85 4 86 37 0 11 -5 10 -20 -4 -20
-18 -20 -18 -5 18 18 43 19 50 5 42 -17 -10 -12 81 5 95 17 14 21 80 5 80 -5
0 -10 -9 -10 -20 0 -11 -5 -20 -11 -20 -12 0 -3 35 18 69 13 19 13 25 2 32
-11 6 -11 11 -1 21 15 15 16 84 2 93 -6 4 -10 23 -10 43 0 20 0 51 0 67 1 89
-1 120 -9 125 -5 3 -8 14 -8 25 1 61 -3 75 -28 81 -14 4 -28 4 -31 1 -3 -2 4
-47 14 -99 19 -93 19 -188 1 -188 -5 0 -8 26 -7 58 2 56 -25 209 -40 224 -4 4
-13 4 -20 -1z m85 -413 c-3 -8 -6 -5 -6 6 -1 11 2 17 5 13 3 -3 4 -12 1 -19z"/>
<path d="M3407 3060 c-28 -4 -43 -12 -53 -30 l-13 -25 -1 29 c0 45 -24 17 -43
-51 -21 -75 -39 -165 -33 -170 3 -3 12 9 21 26 8 17 20 31 26 31 5 0 -10 -39
-35 -87 -28 -57 -53 -127 -70 -198 -14 -60 -33 -141 -42 -180 -13 -52 -14 -70
-5 -73 9 -3 7 -10 -5 -23 -9 -11 -15 -21 -13 -24 3 -2 36 -6 75 -7 l69 -3 0
50 0 50 -37 -3 c-28 -3 -37 0 -34 10 2 7 7 26 11 42 5 22 9 26 15 16 6 -10 16
-1 37 34 15 27 36 58 46 70 17 19 17 20 9 1 -5 -11 -12 -39 -16 -62 -6 -39 -4
-43 14 -43 11 0 24 8 27 17 7 19 64 72 77 73 4 0 1 -11 -8 -25 -9 -14 -14 -26
-11 -26 3 -1 9 -2 14 -3 24 -3 18 -14 -10 -20 -34 -6 -59 -23 -59 -37 0 -5 29
-9 65 -9 56 0 64 2 58 17 -5 13 -3 15 12 9 14 -5 24 0 37 16 13 18 19 21 29
11 11 -11 10 -13 -4 -13 -9 0 -17 -6 -17 -14 0 -18 6 -22 48 -31 l32 -7 -21
54 c-11 29 -26 60 -34 68 -7 8 -16 38 -19 65 -5 35 -4 45 3 35 9 -13 12 -12
25 5 18 23 20 13 7 -32 -8 -27 -3 -47 25 -119 19 -48 32 -90 29 -93 -3 -2 -29
3 -57 12 -29 9 -55 13 -59 9 -3 -4 -1 -32 5 -62 l11 -55 71 -3 71 -3 0 31 c0
19 -5 30 -14 30 -9 0 -11 5 -7 12 16 26 13 101 -6 151 -11 29 -20 60 -20 70 0
10 -7 29 -16 42 -9 14 -12 25 -6 25 6 0 13 -6 15 -12 3 -7 6 -4 6 7 1 17 3 17
11 5 13 -19 13 -8 0 25 -6 15 -15 23 -21 20 -6 -4 -8 -14 -4 -24 5 -12 4 -13
-6 -4 -9 9 -9 15 0 26 6 8 8 22 5 32 -5 13 -14 15 -38 11 -28 -6 -29 -5 -11 8
11 8 24 12 28 9 14 -9 -20 52 -37 66 -9 7 -13 18 -10 23 3 5 1 38 -6 73 -11
60 -13 63 -43 68 -18 2 -34 3 -36 1 -6 -5 49 -148 60 -155 7 -4 4 -13 -7 -23
-13 -14 -15 -23 -7 -49 6 -18 15 -31 23 -29 11 3 11 0 0 -13 -12 -14 -15 -13
-26 14 -7 17 -20 31 -29 31 -19 0 -19 13 0 50 14 27 13 34 -6 87 -12 32 -30
65 -40 75 -26 23 -25 25 24 33 43 8 57 18 57 46 0 19 -43 27 -103 19z m-58
-138 c14 -65 14 -72 1 -72 -5 0 -10 6 -10 14 0 7 -6 18 -13 24 -8 7 -11 28 -9
57 5 57 16 48 31 -23z m101 -101 c-16 -32 -30 -25 -20 9 5 16 12 35 17 42 13
21 16 -27 3 -51z m-146 -88 c-11 -26 -18 -33 -21 -21 -2 9 4 33 13 55 11 26
18 33 21 21 2 -9 -4 -33 -13 -55z m130 -12 c20 -70 28 -154 15 -162 -5 -3 -24
-3 -43 -1 -33 4 -35 6 -38 46 l-3 41 -17 -30 c-23 -41 -23 -12 1 63 39 122 60
132 85 43z m106 -76 c0 -5 -5 -3 -10 5 -5 8 -10 20 -10 25 0 6 5 3 10 -5 5 -8
10 -19 10 -25z"/>
<path d="M3848 3059 c-15 -8 -18 -24 -18 -95 l0 -86 30 24 c29 22 29 25 24 88
-7 74 -12 83 -36 69z"/>
<path d="M4107 3064 c-4 -4 -23 -7 -43 -8 -44 -1 -56 -22 -21 -35 14 -6 27
-14 30 -18 6 -9 -45 -47 -78 -59 -16 -6 -14 -2 8 19 15 14 27 31 27 36 0 12
-69 46 -113 55 -27 6 -28 6 -22 -28 15 -78 11 -104 -24 -140 l-33 -34 10 -79
c9 -65 8 -82 -4 -101 -8 -12 -17 -59 -21 -105 -6 -93 -36 -178 -55 -159 -7 7
-21 12 -33 12 -17 0 -20 -7 -22 -56 -3 -81 6 -94 70 -94 62 0 129 28 152 64
21 32 13 60 -15 53 -13 -3 -20 0 -20 9 0 8 14 17 30 21 32 6 58 37 41 48 -5 3
-12 1 -15 -4 -3 -5 -20 -14 -37 -20 -26 -9 -29 -9 -20 3 7 8 24 19 39 25 19 8
31 24 40 51 15 49 15 70 1 70 -8 0 -10 17 -5 54 l6 55 -37 -6 c-21 -3 -41 -11
-45 -17 -9 -13 -38 -173 -38 -208 0 -15 -4 -30 -10 -33 -14 -9 -13 6 9 115 11
52 22 122 26 156 3 33 11 67 16 75 7 10 9 3 7 -24 -4 -33 -1 -38 19 -44 13 -3
27 -3 30 0 3 3 10 48 15 99 6 51 12 95 13 97 2 2 33 6 69 8 l66 6 2 -224 c3
-223 3 -224 25 -227 14 -2 32 7 48 22 14 14 28 26 30 26 11 0 4 -42 -12 -76
-16 -33 -18 -34 -23 -14 l-5 23 -33 -28 c-25 -21 -32 -35 -32 -62 0 -35 1 -35
32 -29 18 3 45 18 60 33 15 15 30 24 33 21 7 -7 -10 -47 -29 -72 -13 -15 -18
-17 -30 -7 -18 15 -58 11 -64 -6 -7 -22 48 -36 103 -26 l50 8 1 230 c0 128 -4
233 -9 236 -5 4 -5 14 0 25 6 11 7 50 3 94 -5 43 -4 83 1 93 6 11 6 17 -1 17
-5 0 -10 -4 -10 -10 0 -5 -7 -10 -15 -10 -11 0 -15 -16 -17 -67 -2 -44 -7 -68
-16 -71 -14 -4 -10 62 8 164 7 39 5 42 -16 40 -17 -1 -20 -4 -13 -18 5 -9 9
-25 9 -35 -1 -13 -5 -9 -17 12 l-16 30 -18 -40 -19 -40 2 35 c1 19 -1 41 -6
48 -4 7 -2 12 6 12 7 0 5 5 -6 11 -15 9 -16 13 -5 20 8 5 9 9 3 9 -6 0 -14 -3
-17 -6z m-167 -134 c0 -5 -4 -10 -10 -10 -5 0 -10 5 -10 10 0 6 5 10 10 10 6
0 10 -4 10 -10z m225 -92 c26 -90 11 -93 -19 -4 -19 58 -19 56 -6 56 5 0 16
-23 25 -52z m50 -138 c15 -28 14 -30 -4 -30 -11 0 -22 -8 -24 -17 -3 -10 -5 3
-6 30 -1 54 12 60 34 17z m2 -102 c-2 -13 -4 -3 -4 22 0 25 2 35 4 23 2 -13 2
-33 0 -45z m53 -131 c0 -7 -7 -22 -15 -33 -12 -16 -14 -17 -15 -2 0 23 11 48
21 48 5 0 9 -6 9 -13z m-460 -127 c-20 -27 -40 -39 -40 -23 0 3 12 22 27 41
32 42 44 26 13 -18z m40 -50 c-8 -5 -17 -7 -19 -4 -3 3 1 9 9 14 8 5 17 7 19
4 3 -3 -1 -9 -9 -14z"/>
<path d="M4780 3050 c6 -11 12 -20 14 -20 2 0 2 9 -1 20 -3 11 -9 20 -15 20
-5 0 -4 -9 2 -20z"/>
<path d="M4180 3050 c0 -12 17 -12 45 0 17 7 15 9 -12 9 -18 1 -33 -3 -33 -9z"/>
<path d="M2256 3041 c-8 -12 4 -42 14 -36 15 9 19 45 5 45 -8 0 -16 -4 -19 -9z"/>
<path d="M4247 3033 c-4 -3 -7 -18 -7 -32 1 -25 1 -25 15 -7 23 30 15 63 -8
39z"/>
<path d="M287 3013 c-4 -3 -7 -16 -6 -27 0 -19 1 -19 10 3 10 24 8 36 -4 24z"/>
<path d="M4791 2994 c0 -11 3 -14 6 -6 3 7 2 16 -1 19 -3 4 -6 -2 -5 -13z"/>
<path d="M1030 2955 c-24 -63 -23 -70 13 -83 42 -15 56 -15 37 1 -9 7 -15 29
-15 56 0 51 -20 66 -35 26z"/>
<path d="M1854 2956 c13 -52 56 -137 66 -131 12 8 13 105 1 105 -5 0 -7 9 -4
20 4 15 0 20 -15 20 -11 0 -28 3 -38 7 -14 5 -16 2 -10 -21z"/>
<path d="M4802 2950 c0 -14 2 -19 5 -12 2 6 2 18 0 25 -3 6 -5 1 -5 -13z"/>
<path d="M271 2934 c0 -11 3 -14 6 -6 3 7 2 16 -1 19 -3 4 -6 -2 -5 -13z"/>
<path d="M2014 2897 c3 -10 7 -44 7 -75 1 -31 4 -47 6 -34 4 22 33 32 33 11 0
-5 -6 -7 -12 -3 -10 6 -10 5 -1 -8 7 -8 10 -18 6 -21 -3 -4 3 -7 14 -7 11 0
26 -7 33 -15 15 -18 0 -20 -20 -2 -8 6 -5 1 7 -13 12 -14 23 -38 26 -55 3 -19
4 -12 4 17 0 29 -6 55 -16 65 -29 32 -51 72 -51 92 0 10 -9 29 -21 42 -16 19
-19 20 -15 6z"/>
<path d="M260 2880 c0 -11 2 -20 4 -20 2 0 6 9 9 20 3 11 1 20 -4 20 -5 0 -9
-9 -9 -20z"/>
<path d="M4812 2870 c0 -14 2 -19 5 -12 2 6 2 18 0 25 -3 6 -5 1 -5 -13z"/>
<path d="M1104 2859 c-6 -10 45 -73 53 -65 6 6 -30 76 -38 76 -4 0 -11 -5 -15
-11z"/>
<path d="M4821 2824 c0 -11 3 -14 6 -6 3 7 2 16 -1 19 -3 4 -6 -2 -5 -13z"/>
<path d="M248 2785 c-3 -14 -1 -28 3 -31 5 -3 9 9 9 25 0 38 -6 40 -12 6z"/>
<path d="M1920 2790 c0 -13 -5 -18 -15 -14 -18 7 -19 0 -5 -27 13 -23 29 -24
55 -5 18 13 18 17 6 40 -17 31 -41 34 -41 6z"/>
<path d="M4821 2775 c0 -11 4 -29 9 -40 8 -18 9 -18 9 5 0 14 -4 32 -9 40 -8
12 -10 12 -9 -5z"/>
<path d="M2005 2750 c-10 -16 5 -50 21 -50 8 0 14 5 14 10 0 6 5 10 11 10 7 0
8 -7 4 -17 -4 -10 -9 -27 -11 -38 -3 -12 -2 -14 2 -5 4 8 13 23 21 32 13 14
12 19 -6 37 -19 19 -21 19 -31 3 -11 -16 -11 -16 -6 0 6 20 -9 34 -19 18z"/>
<path d="M1948 2714 c-16 -8 -28 -18 -28 -23 0 -9 36 -110 80 -226 16 -44 30
-83 30 -87 0 -3 -28 2 -61 12 l-62 19 6 -54 c3 -30 8 -59 12 -65 3 -5 37 -10
75 -10 62 0 68 2 63 19 -3 10 0 22 6 25 20 13 12 27 -9 16 -20 -10 -30 3 -11
14 14 9 5 118 -14 161 -10 22 -17 48 -16 58 4 27 -29 60 -45 46 -9 -8 -11 -5
-7 10 3 12 11 17 19 14 8 -3 14 0 14 6 0 6 -4 11 -10 11 -6 0 -6 9 0 26 10 25
6 44 -8 44 -4 -1 -19 -8 -34 -16z"/>
<path d="M243 2665 c0 -33 2 -45 4 -27 2 18 2 45 0 60 -2 15 -4 0 -4 -33z"/>
<path d="M2087 2668 c3 -18 11 -42 16 -53 11 -20 11 -20 15 0 2 10 -1 21 -7
23 -6 2 -11 17 -11 33 0 16 -4 29 -10 29 -5 0 -7 -14 -3 -32z"/>
<path d="M4835 2530 c0 -98 2 -147 7 -120 9 58 8 183 -1 240 -4 27 -7 -20 -6
-120z"/>
<path d="M2000 2631 c0 -13 26 -32 33 -24 14 13 6 33 -13 33 -11 0 -20 -4 -20
-9z"/>
<path d="M2260 2610 c-8 -5 -27 -10 -42 -10 -27 0 -28 -2 -29 -57 0 -32 -2
-71 -3 -86 -3 -42 17 -52 33 -16 25 57 35 29 24 -68 -2 -24 -9 -43 -14 -43 -5
0 -7 18 -3 43 l7 42 -20 -25 c-11 -14 -25 -44 -30 -67 l-11 -43 60 0 59 0 -5
83 c-3 45 -9 99 -12 121 -4 25 -3 37 4 32 6 -4 7 7 1 32 -5 22 -4 41 1 46 22
22 7 34 -20 16z"/>
<path d="M872 2375 l3 -90 41 -3 c36 -3 45 1 62 26 l21 29 -65 64 -65 64 3
-90z"/>
<path d="M4120 2446 c0 -9 5 -16 10 -16 6 0 10 4 10 9 0 6 -4 13 -10 16 -5 3
-10 -1 -10 -9z"/>
<path d="M243 2395 c0 -33 2 -45 4 -27 2 18 2 45 0 60 -2 15 -4 0 -4 -33z"/>
<path d="M1656 2425 c-9 -14 -12 -25 -7 -25 12 0 35 39 28 46 -2 3 -12 -7 -21
-21z"/>
<path d="M3271 2432 c-7 -13 -11 -26 -8 -28 8 -8 29 25 25 38 -3 8 -9 4 -17
-10z"/>
<path d="M1695 2406 c-11 -8 -14 -15 -8 -19 6 -4 16 0 23 8 17 21 8 28 -15 11z"/>
<path d="M3304 2406 c-10 -8 -15 -18 -11 -22 4 -4 15 0 24 9 22 21 12 31 -13
13z"/>
<path d="M1001 2306 c-13 -14 -18 -26 -13 -30 13 -8 42 20 42 40 0 19 -3 18
-29 -10z"/>
<path d="M4827 2317 c-4 -10 -7 -26 -7 -35 1 -15 2 -15 11 1 6 10 9 25 7 35
-3 16 -4 15 -11 -1z"/>
<path d="M247 2293 c-2 -5 -1 -19 4 -33 7 -23 7 -23 8 8 1 31 -3 40 -12 25z"/>
<path d="M910 2074 l0 -185 52 3 c64 4 80 28 19 28 l-41 0 0 170 c0 144 -2
170 -15 170 -13 0 -15 -27 -15 -186z"/>
<path d="M4200 2090 l0 -170 -55 0 c-40 0 -55 4 -55 14 0 7 -8 20 -17 27 -15
11 -16 11 -5 -1 18 -20 15 -76 -5 -96 -13 -13 -14 -16 -3 -12 8 2 20 13 25 24
9 16 19 19 73 16 l62 -3 0 186 c0 117 -4 185 -10 185 -6 0 -10 -63 -10 -170z"/>
<path d="M250 2209 c0 -5 5 -7 10 -4 6 3 10 8 10 11 0 2 -4 4 -10 4 -5 0 -10
-5 -10 -11z"/>
<path d="M4812 2180 c0 -14 2 -19 5 -12 2 6 2 18 0 25 -3 6 -5 1 -5 -13z"/>
<path d="M262 2170 c0 -14 2 -19 5 -12 2 6 2 18 0 25 -3 6 -5 1 -5 -13z"/>
<path d="M271 2114 c0 -11 3 -14 6 -6 3 7 2 16 -1 19 -3 4 -6 -2 -5 -13z"/>
<path d="M4801 2104 c0 -11 3 -14 6 -6 3 7 2 16 -1 19 -3 4 -6 -2 -5 -13z"/>
<path d="M281 2070 c0 -8 4 -22 9 -30 12 -18 12 -2 0 25 -6 13 -9 15 -9 5z"/>
<path d="M4791 2054 c0 -11 3 -14 6 -6 3 7 2 16 -1 19 -3 4 -6 -2 -5 -13z"/>
<path d="M4778 2007 c-3 -19 -2 -25 4 -19 6 6 8 18 6 28 -3 14 -5 12 -10 -9z"/>
<path d="M291 2015 c1 -19 18 -51 18 -35 0 8 -4 22 -9 30 -5 8 -9 11 -9 5z"/>
<path d="M1990 1979 c189 -25 200 -28 200 -44 0 -13 -51 -15 -355 -15 -309 0
-355 -2 -355 -15 0 -13 46 -15 355 -15 195 0 355 -4 355 -8 0 -4 -74 -21 -165
-37 -91 -15 -164 -30 -162 -31 2 -2 99 1 217 7 198 10 217 12 238 32 l24 22
464 -4 c339 -3 464 0 464 8 0 8 53 11 180 11 153 0 180 2 180 15 0 13 -27 15
-180 15 -156 0 -180 2 -180 16 0 14 -49 15 -465 13 -455 -2 -466 -2 -488 18
-20 19 -39 21 -242 26 l-220 5 135 -19z"/>
<path d="M1072 1913 c0 -38 3 -54 5 -36 3 23 10 33 26 36 l22 4 -22 2 c-17 1
-23 7 -23 25 0 20 6 25 33 29 31 4 31 4 -5 5 l-38 2 2 -67z"/>
<path d="M1190 1970 c0 -5 5 -10 10 -10 6 0 10 5 10 10 0 6 -4 10 -10 10 -5 0
-10 -4 -10 -10z"/>
<path d="M1273 1964 c-8 -22 9 -48 33 -51 15 -2 14 -1 -3 7 -25 10 -31 45 -10
53 9 4 9 6 -1 6 -7 1 -15 -6 -19 -15z"/>
<path d="M1310 1976 c0 -2 7 -7 16 -10 8 -3 12 -2 9 4 -6 10 -25 14 -25 6z"/>
<path d="M1362 1975 c8 -8 77 -9 85 -2 3 4 -15 7 -42 7 -27 0 -46 -2 -43 -5z"/>
<path d="M3645 1971 c-3 -6 10 -7 32 -4 50 8 55 13 10 13 -20 0 -38 -4 -42 -9z"/>
<path d="M3757 1962 c-23 -25 -22 -86 1 -103 15 -13 16 -12 4 3 -7 9 -12 33
-10 54 4 43 28 65 56 48 21 -14 28 -79 10 -102 -12 -15 -11 -16 5 -3 23 18 23
83 -1 104 -24 22 -45 21 -65 -1z"/>
<path d="M3876 1958 c-25 -36 -15 -108 16 -108 6 0 4 8 -5 18 -35 38 -12 107
33 100 34 -4 49 -58 26 -93 -9 -14 -12 -25 -7 -25 5 0 14 13 21 29 12 29 7 64
-12 89 -16 19 -55 14 -72 -10z"/>
<path d="M3997 1973 c-10 -9 -9 -123 1 -123 4 0 5 27 4 59 -4 59 -3 60 25 64
27 4 27 4 2 6 -14 0 -29 -2 -32 -6z"/>
<path d="M311 1944 c0 -11 3 -14 6 -6 3 7 2 16 -1 19 -3 4 -6 -2 -5 -13z"/>
<path d="M1166 1903 c-17 -50 -16 -72 2 -26 16 42 24 73 19 73 -3 0 -12 -21
-21 -47z"/>
<path d="M1413 1900 c0 -30 2 -43 4 -27 2 15 2 39 0 55 -2 15 -4 2 -4 -28z"/>
<path d="M3641 1945 c1 -29 15 -41 39 -34 23 6 23 7 3 8 -12 1 -27 9 -32 19
-6 9 -10 13 -10 7z"/>
<path d="M4756 1915 c-9 -26 -7 -32 5 -12 6 10 9 21 6 23 -2 3 -7 -2 -11 -11z"/>
<path d="M321 1890 c15 -45 24 -54 15 -15 -4 17 -12 34 -17 40 -5 5 -4 -6 2
-25z"/>
<path d="M1224 1895 c4 -16 12 -34 17 -40 5 -5 4 6 -2 25 -15 45 -24 54 -15
15z"/>
<path d="M1336 1897 c3 -9 0 -25 -7 -34 -12 -14 -12 -16 1 -11 19 6 25 37 10
52 -8 8 -10 7 -4 -7z"/>
<path d="M1260 1876 c0 -2 8 -10 18 -17 15 -13 16 -12 3 4 -13 16 -21 21 -21
13z"/>
<path d="M4740 1869 c0 -5 5 -7 10 -4 6 3 10 8 10 11 0 2 -4 4 -10 4 -5 0 -10
-5 -10 -11z"/>
<path d="M3640 1860 c0 -5 5 -10 11 -10 5 0 7 5 4 10 -3 6 -8 10 -11 10 -2 0
-4 -4 -4 -10z"/>
<path d="M4737 1843 c-8 -14 -19 -68 -13 -62 8 8 26 69 21 69 -2 0 -6 -3 -8
-7z"/>
<path d="M340 1831 c0 -6 4 -13 10 -16 6 -3 7 1 4 9 -7 18 -14 21 -14 7z"/>
<path d="M366 1757 c3 -10 9 -15 12 -12 3 3 0 11 -7 18 -10 9 -11 8 -5 -6z"/>
<path d="M2765 1752 c-17 -14 -21 -29 -20 -77 l0 -60 -50 0 c-49 0 -50 1 -53
32 -2 18 2 41 8 53 10 18 8 20 -27 20 -29 0 -34 -3 -25 -12 19 -19 15 -89 -5
-104 -17 -13 -17 -13 0 -14 13 0 17 -9 17 -43 0 -24 -5 -48 -12 -55 -9 -9 -4
-12 25 -12 34 0 37 2 27 19 -5 11 -10 36 -10 55 l0 36 55 0 55 0 0 -43 c0 -24
-5 -48 -12 -55 -9 -9 -3 -12 27 -12 30 0 36 3 27 12 -15 15 -16 231 -2 259 13
23 2 24 -25 1z"/>
<path d="M3368 1756 c-21 -9 -25 -15 -17 -23 8 -8 4 -30 -16 -82 -15 -39 -29
-71 -31 -71 -2 0 -17 26 -33 59 -22 43 -27 61 -18 70 8 8 1 11 -29 11 l-41 0
49 -96 c50 -97 55 -131 18 -119 -24 8 -29 -22 -5 -31 24 -10 42 12 75 94 17
42 44 105 60 140 31 66 30 67 -12 48z"/>
<path d="M4681 1684 c-12 -31 -20 -58 -18 -61 2 -2 14 22 26 53 12 31 20 59
17 61 -2 2 -14 -21 -25 -53z"/>
<path d="M3895 1723 c-60 -16 -75 -82 -25 -111 16 -9 30 -19 30 -23 0 -3 -14
-27 -31 -53 -16 -27 -29 -49 -27 -51 2 -1 12 -5 23 -9 17 -5 22 2 38 54 15 53
20 60 42 60 23 0 25 -4 25 -43 0 -24 -5 -48 -12 -55 -9 -9 -2 -12 32 -12 34 0
41 3 32 12 -17 17 -17 198 1 198 6 1 1 7 -13 15 -31 16 -87 25 -115 18z m59
-19 c12 -4 16 -20 16 -55 0 -53 -10 -60 -53 -38 -68 36 -34 120 37 93z"/>
<path d="M1972 1703 c5 -6 8 -56 6 -112 -2 -56 0 -101 5 -101 4 0 7 39 7 87 0
50 4 83 9 78 5 -6 18 -41 30 -80 12 -38 24 -77 27 -85 5 -14 64 121 64 148 0
6 5 12 11 12 7 0 10 -28 8 -85 l-4 -85 30 0 c22 0 26 3 17 12 -16 16 -16 200
-1 215 8 8 2 11 -24 10 -23 -1 -33 -5 -30 -13 6 -16 -47 -165 -57 -159 -13 8
-52 135 -48 153 4 13 -2 17 -28 17 -24 0 -30 -3 -22 -12z"/>
<path d="M2315 1710 c11 -18 -26 -109 -42 -103 -16 6 -17 -9 -2 -24 13 -13 -1
-44 -34 -80 l-20 -23 37 0 c33 0 36 2 26 19 -7 14 -7 28 0 47 l11 27 25 -24
c25 -23 26 -24 40 -5 18 25 27 15 28 -29 1 -32 3 -35 32 -35 l32 0 -20 38
c-11 22 -17 48 -14 65 4 18 1 27 -8 27 -15 0 -50 85 -41 100 4 6 -6 10 -25 10
-19 0 -29 -4 -25 -10z m36 -85 c15 -41 15 -45 -1 -60 -15 -14 -18 -13 -35 5
-16 18 -17 25 -6 60 6 22 15 40 19 40 4 0 14 -20 23 -45z"/>
<path d="M2915 1710 c11 -18 -16 -92 -36 -97 -21 -6 -25 -18 -9 -28 16 -10
-16 -100 -48 -138 -21 -23 -11 -29 26 -16 27 9 30 14 26 42 -3 18 1 47 8 65
l14 32 24 -25 23 -25 15 21 c15 22 15 21 27 -7 8 -19 9 -33 2 -41 -7 -10 -1
-13 26 -13 l35 0 -21 52 c-16 38 -19 52 -9 55 18 7 15 20 -7 26 -20 5 -47 79
-36 97 4 6 -9 10 -30 10 -21 0 -34 -4 -30 -10z m33 -67 c5 -16 13 -35 16 -43
3 -8 -1 -24 -9 -34 -14 -18 -15 -18 -33 4 -16 19 -17 29 -8 61 12 46 20 49 34
12z"/>
<path d="M3430 1706 c8 -11 11 -56 8 -154 l-3 -139 33 15 c24 12 31 20 25 31
-4 9 -9 67 -11 129 l-3 112 40 0 c28 0 43 -5 50 -17 9 -17 11 -17 25 2 8 11
16 23 16 28 0 4 -43 7 -96 7 -83 0 -95 -2 -84 -14z"/>
<path d="M3670 1705 c16 -19 8 -158 -10 -180 -7 -9 -21 -13 -31 -10 -22 7 -26
-17 -6 -33 37 -31 77 53 77 162 0 56 0 56 31 56 l31 0 -4 -110 -3 -110 34 0
c27 0 32 3 23 12 -16 16 -16 200 0 216 9 9 -6 12 -71 12 -73 0 -82 -2 -71 -15z"/>
<path d="M4104 1658 l44 -62 -31 -46 c-17 -25 -38 -50 -46 -57 -14 -10 -11
-12 16 -13 24 0 31 4 27 14 -5 14 33 76 46 76 10 0 45 -64 42 -77 -3 -13 39
-18 51 -7 3 4 -12 33 -34 65 l-40 59 22 33 c12 17 31 42 42 55 l20 22 -31 0
c-23 0 -30 -4 -26 -14 5 -14 -24 -76 -36 -76 -11 0 -50 71 -45 80 4 6 -9 10
-29 10 l-35 0 43 -62z"/>
<path d="M1768 1688 c6 -21 7 -21 10 -4 3 15 6 16 13 5 7 -11 9 -11 9 4 0 10
-8 17 -19 17 -15 0 -18 -5 -13 -22z"/>
<path d="M1894 1675 c-8 -32 3 -78 17 -69 8 4 7 9 -1 14 -9 5 -11 20 -7 44 7
41 1 49 -9 11z"/>
<path d="M1917 1650 c3 -11 7 -20 9 -20 2 0 4 9 4 20 0 11 -4 20 -9 20 -5 0
-7 -9 -4 -20z"/>
<path d="M426 1600 c7 -27 34 -71 34 -55 -1 6 -10 26 -21 45 -15 26 -18 29
-13 10z"/>
<path d="M1860 1600 c-13 -8 -12 -10 3 -10 9 0 17 5 17 10 0 12 -1 12 -20 0z"/>
<path d="M4614 1528 c-58 -124 -165 -302 -241 -400 -24 -32 -40 -58 -36 -58
26 0 231 326 292 464 31 72 20 67 -15 -6z"/>
<path d="M461 1525 c0 -5 6 -21 14 -35 8 -14 14 -20 14 -15 0 6 -6 21 -14 35
-8 14 -14 21 -14 15z"/>
<path d="M504 1433 c42 -82 178 -299 196 -313 3 -3 28 -34 55 -70 93 -122 370
-383 458 -431 40 -22 12 5 -60 58 -107 78 -345 318 -431 433 -80 108 -173 254
-199 311 -9 22 -21 39 -25 39 -5 0 -2 -12 6 -27z"/>
<path d="M4290 1023 c-235 -265 -422 -414 -717 -574 -81 -43 -75 -49 8 -8 128
64 317 190 439 293 52 44 267 263 288 294 31 43 23 41 -18 -5z"/>
<path d="M1240 603 c1 -8 58 -46 140 -91 63 -35 48 -22 -40 35 -100 66 -100
65 -100 56z"/>
<path d="M1454 471 c5 -8 134 -73 181 -91 55 -21 16 3 -85 51 -55 27 -99 45
-96 40z"/>
<path d="M3450 390 c-19 -11 -30 -19 -25 -19 6 0 26 8 45 19 19 11 31 19 25
19 -5 0 -26 -8 -45 -19z"/>
<path d="M1670 366 c0 -5 82 -37 130 -51 50 -15 11 6 -55 30 -72 27 -75 27
-75 21z"/>
<path d="M3375 360 c-8 -13 5 -13 25 0 13 8 13 10 -2 10 -9 0 -20 -4 -23 -10z"/>
<path d="M3325 340 c-13 -6 -15 -9 -5 -9 8 0 22 4 30 9 18 12 2 12 -25 0z"/>
<path d="M3255 315 c-25 -12 -26 -14 -5 -9 28 7 60 23 45 23 -5 0 -23 -6 -40
-14z"/>
<path d="M1830 310 c0 -5 5 -10 11 -10 5 0 7 5 4 10 -3 6 -8 10 -11 10 -2 0
-4 -4 -4 -10z"/>
<path d="M1867 299 c7 -7 15 -10 18 -7 3 3 -2 9 -12 12 -14 6 -15 5 -6 -5z"/>
<path d="M3198 293 c7 -3 16 -2 19 1 4 3 -2 6 -13 5 -11 0 -14 -3 -6 -6z"/>
<path d="M1930 276 c0 -2 9 -6 20 -9 11 -3 18 -1 14 4 -5 9 -34 13 -34 5z"/>
<path d="M3116 271 c-4 -5 3 -7 14 -4 23 6 26 13 6 13 -8 0 -17 -4 -20 -9z"/>
<path d="M1995 260 c27 -12 43 -12 25 0 -8 5 -22 9 -30 9 -10 0 -8 -3 5 -9z"/>
<path d="M2045 250 c3 -5 11 -10 16 -10 6 0 7 5 4 10 -3 6 -11 10 -16 10 -6 0
-7 -4 -4 -10z"/>
<path d="M3020 250 c-8 -5 -10 -10 -5 -10 6 0 17 5 25 10 8 5 11 10 5 10 -5 0
-17 -5 -25 -10z"/>
<path d="M2960 240 c-21 -7 -21 -8 -5 -9 11 0 27 4 35 9 18 11 5 11 -30 0z"/>
<path d="M2118 233 c7 -3 16 -2 19 1 4 3 -2 6 -13 5 -11 0 -14 -3 -6 -6z"/>
<path d="M2168 223 c7 -3 16 -2 19 1 4 3 -2 6 -13 5 -11 0 -14 -3 -6 -6z"/>
<path d="M2898 223 c6 -2 18 -2 25 0 6 3 1 5 -13 5 -14 0 -19 -2 -12 -5z"/>
<path d="M2790 210 c0 -5 5 -10 11 -10 5 0 7 5 4 10 -3 6 -8 10 -11 10 -2 0
-4 -4 -4 -10z"/>
<path d="M2343 203 c15 -2 37 -2 50 0 12 2 0 4 -28 4 -27 0 -38 -2 -22 -4z"/>
<path d="M2698 203 c12 -2 32 -2 45 0 12 2 2 4 -23 4 -25 0 -35 -2 -22 -4z"/>
<path d="M2483 193 c31 -2 83 -2 115 0 31 2 5 3 -58 3 -63 0 -89 -1 -57 -3z"/>
</g>
</svg>
